<svg xmlns="http://www.w3.org/2000/svg">
  <clipPath id="c1">
    <path id="svgTest" style="fill:#727272;" d="M132.717,394.794c-0.238-0.716-4.047-4.767-5-5.72c-0.951-0.953-3.332-3.217-3.57-3.574
	c-0.235-0.357-1.188-0.953-1.188-0.953s-1.188-3.336-1.312-4.051c-0.119-0.716-0.119-1.907-0.119-1.907l1.666-2.023
	c0,0-1.547-9.413-1.784-10.604c-0.236-1.191-5.832-27.167-6.429-29.191c-0.596-2.025-2.854-9.294-2.975-10.129
	c-0.119-0.833-9.283-34.791-9.521-36.815c-0.239-2.024-1.311-4.171-1.43-4.886s0.478-6.194,0-7.625
	c-0.475-1.431-1.07-3.574-1.07-3.574s-1.547-8.579-1.547-9.889c0-1.312-1.547-19.064-1.785-21.209
	c-0.239-2.146-2.618-22.043-2.977-23.83c-0.357-1.787-1.666-13.94-2.143-15.608s-0.953-7.506-0.834-8.34
	c0.119-0.834,1.547-1.787,1.666-2.264s-2.617-9.293-2.617-9.889c0-0.596-3.93-12.511-4.285-14.179
	c-0.357-1.668-1.904-8.341-2.262-10.485c-0.358-2.144-0.357-8.221-0.357-8.221s10.354-0.833,12.379-1.787
	c2.023-0.954,4.523-2.741,4.879-6.435c0.357-3.693,0.597-13.94,0.479-15.37c-0.121-1.43-1.785-16.562-3.215-22.519
	c-1.429-5.957-2.857-11.796-3.214-14.417s-0.834-12.749-2.262-14.894c-1.43-2.145-2.738-4.051-2.738-4.051s-4.762-1.43-7.262-2.145
	c-2.498-0.715-5.119-1.549-5.119-1.549s-0.235-13.702-0.475-15.49c-0.238-1.787-0.951-13.702-0.951-14.894
	c0-1.191-0.121-6.91-0.953-10.008s-4.521-13.821-5.832-16.681c-1.311-2.859-3.569-6.195-5.475-6.553
	c-1.905-0.357-4.167-0.477-4.167-0.477s-1.31-3.098-6.903-2.859C46.422-0.065,35.947,6.25,34.042,9.229
	c-1.904,2.979-2.856,5.958-3.213,7.269c-0.356,1.31-1.905,3.693-2.976,5.242c-1.071,1.549-3.333,6.911-3.689,8.459
	c-0.357,1.549-0.357,6.673-0.357,9.413c0,2.74,0.238,9.056-0.238,11.438c-0.476,2.383-1.547,7.149-1.904,8.46
	c-0.357,1.311-0.714,4.289-1.309,5.124c-0.595,0.833-1.786,2.025-2.381,2.502c-0.595,0.476-6.666,0.834-7.379,1.191
	c-0.715,0.357-2.5,2.145-2.976,2.979c-0.476,0.833-1.31,2.859-1.667,3.574s-1.547,0.596-2.023,1.191
	c-0.477,0.596,0.119,1.906,0.119,1.906C3.811,80.36,1.668,89.415,1.668,91.322C1.666,93.228,0,117.772,0,120.155
	c0,2.383,0.952,16.681,2.618,20.97c1.667,4.29,2.619,6.434,5.237,6.911c2.619,0.477,8.809,0.477,8.809,0.477s0,4.527-0.714,8.34
	c-0.714,3.812-4.523,20.017-5.476,24.068c-0.583,2.482-3.496,10.506-3.613,16.141c-0.034,1.662,2.183-0.312,2.422,1.254
	c0.274,1.789,0.14,4.769,0.239,6.198c0.476,6.908,1.904,17.87,3.57,24.305c1.666,6.436,4.285,17.158,4.523,21.686
	c0.239,4.528,2.143,15.49,2.381,17.635c0.238,2.146,0.714,12.393,0.714,14.299c0,1.904-0.238,14.059,0,16.203
	c0.238,2.146,2.381,29.072,2.619,32.17c0.238,3.099,2.38,11.2,5.475,15.968c3.095,4.765,3.809,6.434,4.047,8.815
	c0.238,2.385,0.238,6.435,0.714,7.864c0.476,1.429,0.714,4.526,0.714,6.195c0,1.667-0.953,7.625-0.953,7.625l1.429,2.145l0.237,4.29
	c0,0-0.476,5.005,0,6.91c0.477,1.906,2.857,5.72,5.952,7.148c3.094,1.431,5.476,1.431,6.428,1.431s3.094-1.668,4.285-3.575
	c1.19-1.906,1.666-7.862,1.429-9.531c-0.239-1.668-0.715-6.434-1.191-7.387s-0.238-2.86-0.238-2.86s-0.476-16.441-0.952-18.109
	s-3.095-9.771-3.809-10.725c-0.715-0.952-1.905-3.337-1.905-4.766c0-1.43,1.666-8.578,1.666-10.009
	c0-1.43-0.952-31.455-1.428-33.123c-0.476-1.669-2.143-7.625-2.143-8.342c0-0.715,2.143-8.34,2.143-9.771
	c0-1.429,0.952-28.118,0.952-29.31c0-1.192,1.429-19.064,1.667-21.447c0.238-2.384,1.429-11.2,1.429-12.868
	c0-1.669,0.714-5.005,0.714-5.005s4.761,6.673,6.904,11.438c2.142,4.768,10.712,28.121,12.616,36.699
	c1.906,8.578,5.953,22.399,6.429,23.114c0.477,0.714,1.43,2.859,1.43,3.574s0.713,5.004,0.713,6.194
	c0,1.192,6.428,26.451,7.381,29.787c0.951,3.338,3.807,7.626,3.807,9.296c0,1.667,0.238,4.765,0.717,6.908
	c0.476,2.146,5.714,19.304,5.714,20.972s1.666,7.625,1.903,8.579c0.238,0.952,0.951,5.48,1.666,6.909
	c0.715,1.431,2.144,3.813,2.144,3.813v7.625h1.428l0.238-6.435h2.619c0,0,1.069,1.191,2.5,4.886
	c1.428,3.692,1.666,7.507,3.094,9.413c1.431,1.905,5.119,4.646,11.429,4.526c6.307-0.12,8.092-0.477,9.401-1.19
	C133.432,397.771,132.953,395.509,132.717,394.794z M20.473,117.534c-0.476-0.317,0.158-2.065,0.158-2.859s0.636-1.747,0.636-1.747
	s0.317,2.701,0.634,3.812c0.318,1.111,0.476,2.86,0.476,2.86S20.949,117.852,20.473,117.534z M79.512,119.6
	c-0.795-0.318-0.795-1.43-0.795-1.43c0.795-0.953,1.588-2.065,1.906-2.86c0.316-0.794,0.316,1.271,0.316,1.907
	c0,0.635-0.16,2.065,0,2.542C81.098,120.235,80.305,119.917,79.512,119.6z"/>
  </clipPath>

  <mask id="m1" maskUnits="objectBoundingBox" maskContentUnits="objectBoundingBox">
    <path id="svgTest" style="fill:#727272;" d="M132.717,394.794c-0.238-0.716-4.047-4.767-5-5.72c-0.951-0.953-3.332-3.217-3.57-3.574
	c-0.235-0.357-1.188-0.953-1.188-0.953s-1.188-3.336-1.312-4.051c-0.119-0.716-0.119-1.907-0.119-1.907l1.666-2.023
	c0,0-1.547-9.413-1.784-10.604c-0.236-1.191-5.832-27.167-6.429-29.191c-0.596-2.025-2.854-9.294-2.975-10.129
	c-0.119-0.833-9.283-34.791-9.521-36.815c-0.239-2.024-1.311-4.171-1.43-4.886s0.478-6.194,0-7.625
	c-0.475-1.431-1.07-3.574-1.07-3.574s-1.547-8.579-1.547-9.889c0-1.312-1.547-19.064-1.785-21.209
	c-0.239-2.146-2.618-22.043-2.977-23.83c-0.357-1.787-1.666-13.94-2.143-15.608s-0.953-7.506-0.834-8.34
	c0.119-0.834,1.547-1.787,1.666-2.264s-2.617-9.293-2.617-9.889c0-0.596-3.93-12.511-4.285-14.179
	c-0.357-1.668-1.904-8.341-2.262-10.485c-0.358-2.144-0.357-8.221-0.357-8.221s10.354-0.833,12.379-1.787
	c2.023-0.954,4.523-2.741,4.879-6.435c0.357-3.693,0.597-13.94,0.479-15.37c-0.121-1.43-1.785-16.562-3.215-22.519
	c-1.429-5.957-2.857-11.796-3.214-14.417s-0.834-12.749-2.262-14.894c-1.43-2.145-2.738-4.051-2.738-4.051s-4.762-1.43-7.262-2.145
	c-2.498-0.715-5.119-1.549-5.119-1.549s-0.235-13.702-0.475-15.49c-0.238-1.787-0.951-13.702-0.951-14.894
	c0-1.191-0.121-6.91-0.953-10.008s-4.521-13.821-5.832-16.681c-1.311-2.859-3.569-6.195-5.475-6.553
	c-1.905-0.357-4.167-0.477-4.167-0.477s-1.31-3.098-6.903-2.859C46.422-0.065,35.947,6.25,34.042,9.229
	c-1.904,2.979-2.856,5.958-3.213,7.269c-0.356,1.31-1.905,3.693-2.976,5.242c-1.071,1.549-3.333,6.911-3.689,8.459
	c-0.357,1.549-0.357,6.673-0.357,9.413c0,2.74,0.238,9.056-0.238,11.438c-0.476,2.383-1.547,7.149-1.904,8.46
	c-0.357,1.311-0.714,4.289-1.309,5.124c-0.595,0.833-1.786,2.025-2.381,2.502c-0.595,0.476-6.666,0.834-7.379,1.191
	c-0.715,0.357-2.5,2.145-2.976,2.979c-0.476,0.833-1.31,2.859-1.667,3.574s-1.547,0.596-2.023,1.191
	c-0.477,0.596,0.119,1.906,0.119,1.906C3.811,80.36,1.668,89.415,1.668,91.322C1.666,93.228,0,117.772,0,120.155
	c0,2.383,0.952,16.681,2.618,20.97c1.667,4.29,2.619,6.434,5.237,6.911c2.619,0.477,8.809,0.477,8.809,0.477s0,4.527-0.714,8.34
	c-0.714,3.812-4.523,20.017-5.476,24.068c-0.583,2.482-3.496,10.506-3.613,16.141c-0.034,1.662,2.183-0.312,2.422,1.254
	c0.274,1.789,0.14,4.769,0.239,6.198c0.476,6.908,1.904,17.87,3.57,24.305c1.666,6.436,4.285,17.158,4.523,21.686
	c0.239,4.528,2.143,15.49,2.381,17.635c0.238,2.146,0.714,12.393,0.714,14.299c0,1.904-0.238,14.059,0,16.203
	c0.238,2.146,2.381,29.072,2.619,32.17c0.238,3.099,2.38,11.2,5.475,15.968c3.095,4.765,3.809,6.434,4.047,8.815
	c0.238,2.385,0.238,6.435,0.714,7.864c0.476,1.429,0.714,4.526,0.714,6.195c0,1.667-0.953,7.625-0.953,7.625l1.429,2.145l0.237,4.29
	c0,0-0.476,5.005,0,6.91c0.477,1.906,2.857,5.72,5.952,7.148c3.094,1.431,5.476,1.431,6.428,1.431s3.094-1.668,4.285-3.575
	c1.19-1.906,1.666-7.862,1.429-9.531c-0.239-1.668-0.715-6.434-1.191-7.387s-0.238-2.86-0.238-2.86s-0.476-16.441-0.952-18.109
	s-3.095-9.771-3.809-10.725c-0.715-0.952-1.905-3.337-1.905-4.766c0-1.43,1.666-8.578,1.666-10.009
	c0-1.43-0.952-31.455-1.428-33.123c-0.476-1.669-2.143-7.625-2.143-8.342c0-0.715,2.143-8.34,2.143-9.771
	c0-1.429,0.952-28.118,0.952-29.31c0-1.192,1.429-19.064,1.667-21.447c0.238-2.384,1.429-11.2,1.429-12.868
	c0-1.669,0.714-5.005,0.714-5.005s4.761,6.673,6.904,11.438c2.142,4.768,10.712,28.121,12.616,36.699
	c1.906,8.578,5.953,22.399,6.429,23.114c0.477,0.714,1.43,2.859,1.43,3.574s0.713,5.004,0.713,6.194
	c0,1.192,6.428,26.451,7.381,29.787c0.951,3.338,3.807,7.626,3.807,9.296c0,1.667,0.238,4.765,0.717,6.908
	c0.476,2.146,5.714,19.304,5.714,20.972s1.666,7.625,1.903,8.579c0.238,0.952,0.951,5.48,1.666,6.909
	c0.715,1.431,2.144,3.813,2.144,3.813v7.625h1.428l0.238-6.435h2.619c0,0,1.069,1.191,2.5,4.886
	c1.428,3.692,1.666,7.507,3.094,9.413c1.431,1.905,5.119,4.646,11.429,4.526c6.307-0.12,8.092-0.477,9.401-1.19
	C133.432,397.771,132.953,395.509,132.717,394.794z M20.473,117.534c-0.476-0.317,0.158-2.065,0.158-2.859s0.636-1.747,0.636-1.747
	s0.317,2.701,0.634,3.812c0.318,1.111,0.476,2.86,0.476,2.86S20.949,117.852,20.473,117.534z M79.512,119.6
	c-0.795-0.318-0.795-1.43-0.795-1.43c0.795-0.953,1.588-2.065,1.906-2.86c0.316-0.794,0.316,1.271,0.316,1.907
	c0,0.635-0.16,2.065,0,2.542C81.098,120.235,80.305,119.917,79.512,119.6z"/>
  </mask>
</svg>