<svg xmlns="http://www.w3.org/2000/svg">
  <clipPath id="c1">
    <path style="fill:#727272;" d="M81.432,54.091c0,0-0.896-8.731,0-10.479c0.854-1.747,6.984-6.987,6.984-6.987V22.653L81.432,8.68
	c0,0-8.777-6.134-14.017-6.985c-5.242-0.896-17.467,3.492-17.467,3.492l-6.987,6.986v13.974v10.478c0,0,8.734,11.33,6.987,10.479
	c-1.746-0.895,3.494,13.973,3.494,13.973l-6.986,3.492c0,0-22.75,12.226-24.498,10.481c-1.745-1.748-3.492,27.944-3.492,27.944
	l-6.986,20.959l-3.492,17.465l3.492,10.479l3.491,21.006L1,200.848l10.479,3.495l-3.492,80.341l41.96,48.945l3.494,20.962
	l-3.494,17.463l-10.479,20.962L42.96,400h13.973l13.971-20.957l7.033-10.478v-6.99l6.988,6.99l-3.494,20.957V400h6.983
	l10.479-27.946v-20.956c0,0,7.879,2.599,6.987,0c-0.849-2.643,0-17.469,0-17.469l-6.987-3.533l-6.985-10.479v-90.823l13.974,3.492
	l3.49-66.369l21.005-10.524l-6.983-80.342L88.416,61.078L81.432,54.091z"/>
  </clipPath>

  <mask id="m1" maskUnits="objectBoundingBox" maskContentUnits="objectBoundingBox">
    <path style="fill:#727272;" d="M81.432,54.091c0,0-0.896-8.731,0-10.479c0.854-1.747,6.984-6.987,6.984-6.987V22.653L81.432,8.68
	c0,0-8.777-6.134-14.017-6.985c-5.242-0.896-17.467,3.492-17.467,3.492l-6.987,6.986v13.974v10.478c0,0,8.734,11.33,6.987,10.479
	c-1.746-0.895,3.494,13.973,3.494,13.973l-6.986,3.492c0,0-22.75,12.226-24.498,10.481c-1.745-1.748-3.492,27.944-3.492,27.944
	l-6.986,20.959l-3.492,17.465l3.492,10.479l3.491,21.006L1,200.848l10.479,3.495l-3.492,80.341l41.96,48.945l3.494,20.962
	l-3.494,17.463l-10.479,20.962L42.96,400h13.973l13.971-20.957l7.033-10.478v-6.99l6.988,6.99l-3.494,20.957V400h6.983
	l10.479-27.946v-20.956c0,0,7.879,2.599,6.987,0c-0.849-2.643,0-17.469,0-17.469l-6.987-3.533l-6.985-10.479v-90.823l13.974,3.492
	l3.49-66.369l21.005-10.524l-6.983-80.342L88.416,61.078L81.432,54.091z"/>
  </mask>
</svg>