<?xml version="1.0" encoding="utf-8"?>
<!-- Generator: Adobe Illustrator 15.0.0, SVG Export Plug-In . SVG Version: 6.00 Build 0)  -->
<!DOCTYPE svg PUBLIC "-//W3C//DTD SVG 1.0//EN" "http://www.w3.org/TR/2001/REC-SVG-20010904/DTD/svg10.dtd">
<svg version="1.0" id="Layer_1" xmlns="http://www.w3.org/2000/svg" xmlns:xlink="http://www.w3.org/1999/xlink" x="0px" y="0px"
	 width="133px" height="400px" viewBox="0 0 133 400" enable-background="new 0 0 133 400" xml:space="preserve">
<path fill-rule="evenodd" clip-rule="evenodd" d="M63.593,12.471c2.938-0.223,4.918,1.054,7.546,1.709
	c2.502,0.578,3.654-0.269,5.482,2.451c3.15,4.683,4.665,13.67,2.937,19.166c-0.564,1.787,0.187,1.956,1.484,2.32
	c-0.088,1.316-0.17,2.631-0.272,3.942c-0.183,2.229,0,6.292-1.457,8.103c-1.841,2.3-2.135,2.72-2.802,5.836
	c-0.34,1.594-0.713,3.175-1.163,4.738c1.874,1.164,3.224,3.027,5.094,4.208c5.822,3.667,12.326,3.649,18.745,5.333
	c4.95,1.295,12.848,2.811,16.641,6.508c1.504,1.488,1.693,5.489,1.969,7.5c0.521,3.822,1.085,7.616,1.711,11.418
	c1.257,7.596,1.448,15.034,3.807,22.337c1.147,3.564,2.576,7.028,3.583,10.644c0.886,3.188-0.265,5.165-0.318,8.278
	c-0.053,2.958,2.393,5.021,2.458,7.954c0.055,2.27-1.514,4.717-2.451,6.642c-1.009,2.087-1.84,3.171-3.731,4.501
	c-2.452,1.725-3.688,3.787-5.621,6.02c-1.753,2.018-5.13,2.337-7.346,3.766c-0.266,0.166-1.712,1.783-2.101,1.957
	c-2.265,0.988-1.452,1.721-1.049,4.373c0.518,3.464,0.745,7.279,1.794,10.608c0.856,2.71-0.139,6.416,0.143,9.384
	c0.83,8.646-0.148,17.278,0.482,25.863c0.184,2.521,1.449,6.095,0.859,8.56c-0.574,2.298-3.278,3.389-4.919,4.635
	c-2.074,1.57-1.259,5.052-1.025,7.349c0.436,4.305,0.41,8.705,0,13.013c-0.763,7.806-3.381,15.196-4.457,22.881
	c-0.479,3.396,1.369,7.926,1.744,11.359c0.427,3.919,0.139,7.628,0.143,11.539c0.006,7.644,1.348,15.488,1.832,23.129
	c0.243,3.766,0.209,7.482,0.253,11.253c0.052,4.356,1.414,8.13,2.451,12.278c1.989,7.966,3.817,15.296,3.064,23.595
	c-0.172,1.866-0.395,3.69-0.291,5.562c0.077,1.366-0.945,3.012-0.654,4.273c0.537,2.341,4.044,6.077,5.642,7.735
	c2.147,2.229,5.245,10.879,2.239,13.459c-3.234,2.768-10.619,1.846-14.31,0.97c-4.952-1.177-6.627-5.029-6.585-10.333
	c0.014-1.819-3.189-1.227-4.451-2.259c-2.59-2.122-2.411-3.24-2.313-6.508c0.077-2.684-2.852-6.678-3.907-9.136
	c-1.466-3.405-2.068-7.179-3.689-10.506c-3.499-7.175-5.645-14.293-7.48-22.154c-0.808-3.464-0.226-7.286-0.444-10.832
	c-0.253-4.157-0.401-8.32-0.561-12.483c-0.341-8.832-0.955-17.526-2.353-26.249c-1.301-8.131-2.396-16.293-3.619-24.436
	c-0.58-3.831-1.212-7.646-1.957-11.444c-0.672-3.388-0.749-9.118-2.638-11.954c-5.094,2-3.594,10.777-3.954,15.535
	c-0.638,8.451-3.994,16.291-5.184,24.751c-1.115,7.9-3.729,15.187-4.413,23.17c-0.746,8.717-2.44,17.438-3.626,26.104
	c-1.111,8.089-2.252,16.185-3.743,24.208c-0.699,3.739-0.612,7.423-1.873,11.049c-0.849,2.446-1.996,9.098-3.875,9.673
	c-2.333,0.72-0.166,5.637-0.938,7.427c-0.538,1.237-3.314,2.339-4.377,2.924c-1.775,0.981-2.929-0.178-4.459,0.617
	c-3.019,1.569-2.504,4.035-3.292,6.853c-0.988,3.468-8.466,4.256-11.231,4.272c-2.442,0.011-4.957-0.104-7.342-0.679
	c-3.286-0.8-2.288-2.241-2.3-5.196c-0.016-5.904,4.199-9.303,7.929-13.163c1.014-1.05,4.721-3.896,3.296-5.579
	c-1.213-1.425,1.129-7.379,1.367-9.696c0.734-7.103,0.488-14.237,1.532-21.312c1.325-9.018,3.149-17.949,4.403-26.985
	c2.132-15.315,3.319-30.094,2.605-45.569c-0.447-9.755-0.155-19.514-0.084-29.243c0.02-2.388-0.201-3.827-1.86-5.452
	c-2.274-2.234-1.319-3.264-1.041-6.074c0.625-6.432,1.433-12.836,1.935-19.282c0.687-8.777,1.076-16.821,2.67-25.271
	c0.609-3.223,8.917-26.213,7.861-26.806c-4.216,4.246-9.213,10.623-14.996,5.534c-2.207-1.949-5.068-2.728-6.26-5.654
	c-1.303-3.216-2.009-6.887-2.165-10.379c-0.156-3.388,1.639-5.729,1.341-9.118c-0.479-5.416,0.362-11.604,0.949-17
	c0.444-4.135,1.993-8.192,2.776-12.275c0.94-4.886,1.482-9.789,2.068-14.731c0.314-2.645-0.074-5.867,2.21-7.486
	c2.398-1.7,4.977-3.14,7.537-4.538c2.427-1.336,5.23-1.615,7.518-3.127c3.604-2.393,8.062-2.924,11.529-5.323
	c2.204-1.529,5.314-3.936,6.127-6.735c1.047-3.602-1.85-6.784-2.219-10.324c-0.15-1.501-0.13-3.45-0.901-4.78
	c-0.622-1.066-2.139-1.08-2.896-2.089c-1.555-2.084-1.958-9.642-1.686-12.245c0.791,0.024,1.414,0.135,2.1,0
	c0-3.726,0.059-7.014,0.486-10.74c0.337-2.94-0.278-6.349,1.756-8.752C51.153,12.954,57.659,12.892,63.593,12.471"/>
</svg>
