<?xml version="1.0" encoding="utf-8"?>
<!-- Generator: Adobe Illustrator 15.0.0, SVG Export Plug-In . SVG Version: 6.00 Build 0)  -->
<!DOCTYPE svg PUBLIC "-//W3C//DTD SVG 1.1//EN" "http://www.w3.org/Graphics/SVG/1.1/DTD/svg11.dtd">
<svg version="1.1" id="Layer_1" xmlns="http://www.w3.org/2000/svg" xmlns:xlink="http://www.w3.org/1999/xlink" x="0px" y="0px"
	 width="133px" height="400px" viewBox="0 0 133 400" enable-background="new 0 0 133 400" xml:space="preserve">
<path fill="#727272" d="M130.726,395.288c-0.229-0.69-3.925-4.601-4.851-5.521c-0.921-0.92-3.229-3.104-3.462-3.449
	c-0.228-0.346-1.153-0.92-1.153-0.92s-1.153-3.219-1.271-3.908c-0.114-0.691-0.114-1.842-0.114-1.842l1.615-1.953
	c0,0-1.5-9.082-1.731-10.231c-0.229-1.149-5.657-26.217-6.234-28.17c-0.579-1.955-2.771-8.969-2.887-9.774
	c-0.113-0.803-9.004-33.574-9.233-35.526c-0.232-1.954-1.273-4.026-1.388-4.716c-0.115-0.689,0.461-5.979,0-7.358
	c-0.46-1.38-1.038-3.448-1.038-3.448s-1.5-8.279-1.5-9.543c0-1.267-1.501-18.396-1.73-20.467c-0.233-2.07-2.541-21.271-2.889-22.996
	c-0.347-1.726-1.615-13.453-2.076-15.062c-0.464-1.608-0.926-7.242-0.811-8.049c0.116-0.805,1.501-1.724,1.618-2.185
	c0.114-0.46-2.54-8.967-2.54-9.543c0-0.575-3.812-12.073-4.156-13.683c-0.347-1.61-1.848-8.051-2.194-10.118
	c-0.349-2.069-0.347-7.935-0.347-7.935s10.042-0.804,12.006-1.725c1.962-0.92,4.39-2.645,4.733-6.21
	c0.347-3.563,0.577-13.452,0.465-14.832c-0.118-1.38-1.732-15.981-3.119-21.731c-1.385-5.748-2.771-11.383-3.119-13.912
	c-0.345-2.53-0.807-12.304-2.192-14.375c-1.385-2.069-2.656-3.909-2.656-3.909s-4.619-1.38-7.041-2.07
	c-2.424-0.69-4.966-1.494-4.966-1.494s-0.229-13.223-0.462-14.949c-0.229-1.724-0.923-13.223-0.923-14.373
	c0-1.149-0.115-6.668-0.922-9.658c-0.81-2.99-4.387-13.337-5.657-16.098c-1.273-2.759-3.463-5.978-5.311-6.324
	c-1.847-0.344-4.041-0.46-4.041-0.46s-1.271-2.99-6.696-2.759c-5.427,0.23-15.585,6.324-17.434,9.199
	c-1.846,2.875-2.77,5.75-3.116,7.015c-0.344,1.264-1.847,3.563-2.885,5.059c-1.04,1.495-3.234,6.669-3.579,8.163
	c-0.347,1.495-0.347,6.439-0.347,9.083s0.23,8.739-0.23,11.038c-0.462,2.3-1.502,6.899-1.847,8.164
	c-0.348,1.265-0.692,4.139-1.27,4.945c-0.576,0.804-1.733,1.955-2.311,2.415c-0.577,0.459-6.466,0.805-7.157,1.149
	c-0.693,0.345-2.424,2.07-2.886,2.875c-0.461,0.804-1.271,2.759-1.617,3.449c-0.346,0.69-1.5,0.575-1.962,1.149
	c-0.463,0.575,0.116,1.839,0.116,1.839c-0.231,2.3-2.309,11.038-2.309,12.878C3.616,104.273,2,127.958,2,130.258
	c0,2.299,0.924,16.098,2.539,20.235c1.618,4.14,2.542,6.209,5.081,6.669c2.541,0.461,8.544,0.461,8.544,0.461s0,4.368-0.692,8.047
	c-0.694,3.68-4.388,19.316-5.312,23.227c-0.566,2.395-3.392,10.139-3.505,15.576c-0.033,1.604,2.117-0.302,2.349,1.209
	c0.266,1.728,0.135,4.604,0.232,5.981c0.461,6.666,1.847,17.245,3.462,23.454c1.618,6.211,4.157,16.559,4.388,20.928
	c0.232,4.369,2.078,14.947,2.31,17.018c0.231,2.069,0.691,11.959,0.691,13.799c0,1.838-0.23,13.565,0,15.636
	c0.232,2.071,2.312,28.056,2.542,31.045c0.23,2.989,2.309,10.81,5.311,15.407c3.001,4.599,3.694,6.211,3.925,8.509
	c0.23,2.301,0.23,6.208,0.692,7.589c0.461,1.379,0.692,4.368,0.692,5.979c0,1.609-0.924,7.357-0.924,7.357l1.386,2.071l0.23,4.139
	c0,0-0.461,4.831,0,6.669c0.462,1.84,2.771,5.521,5.773,6.898c3.001,1.38,5.311,1.38,6.235,1.38c0.923,0,3.001-1.608,4.156-3.449
	c1.153-1.84,1.616-7.587,1.386-9.198c-0.233-1.608-0.693-6.209-1.155-7.127c-0.461-0.921-0.231-2.761-0.231-2.761
	s-0.461-15.867-0.924-17.478c-0.462-1.609-3.002-9.428-3.694-10.349c-0.694-0.919-1.847-3.221-1.847-4.6s1.616-8.277,1.616-9.658
	c0-1.38-0.923-30.354-1.386-31.965c-0.46-1.61-2.078-7.356-2.078-8.05c0-0.689,2.078-8.049,2.078-9.43
	c0-1.379,0.923-27.134,0.923-28.283s1.386-18.396,1.617-20.696c0.231-2.302,1.386-10.81,1.386-12.418c0-1.61,0.694-4.83,0.694-4.83
	s4.618,6.438,6.696,11.037c2.079,4.603,10.389,27.137,12.237,35.415c1.849,8.277,5.772,21.615,6.235,22.306
	c0.462,0.69,1.386,2.761,1.386,3.45c0,0.688,0.691,4.828,0.691,5.977c0,1.151,6.237,25.526,7.16,28.746
	c0.922,3.221,3.692,7.359,3.692,8.969c0,1.61,0.229,4.6,0.695,6.67c0.462,2.068,5.541,18.627,5.541,20.236
	c0,1.608,1.617,7.357,1.847,8.277c0.23,0.92,0.923,5.289,1.614,6.668c0.694,1.38,2.081,3.682,2.081,3.682v7.357h1.385l0.229-6.21
	h2.541c0,0,1.038,1.149,2.423,4.716c1.387,3.562,1.619,7.244,3.003,9.083c1.389,1.839,4.965,4.482,11.086,4.368
	c6.117-0.116,7.846-0.461,9.119-1.148C131.418,398.161,130.955,395.979,130.726,395.288z M21.858,127.729
	c-0.461-0.307,0.153-1.992,0.153-2.76c0-0.766,0.617-1.686,0.617-1.686s0.309,2.605,0.615,3.679c0.308,1.072,0.462,2.76,0.462,2.76
	S22.32,128.035,21.858,127.729z M79.12,129.723c-0.771-0.307-0.771-1.38-0.771-1.38c0.771-0.92,1.54-1.993,1.848-2.76
	c0.307-0.767,0.307,1.226,0.307,1.84c0,0.613-0.154,1.993,0,2.453C80.659,130.335,79.891,130.027,79.12,129.723z"/>
</svg>
